<svg xmlns="http://www.w3.org/2000/svg" viewBox="0 0 960 540" width="960" height="540" role="img" aria-label="WebAR Playground preview">
  <defs>
    <linearGradient id="g" x1="0" y1="0" x2="1" y2="1">
      <stop offset="0" stop-color="#f7be69"/>
      <stop offset="1" stop-color="#be69f7"/>
    </linearGradient>
    <filter id="s" x="-20%" y="-20%" width="140%" height="140%">
      <feDropShadow dx="8" dy="8" stdDeviation="0" flood-color="#000" flood-opacity="0.25"/>
    </filter>
  </defs>

  <rect x="0" y="0" width="960" height="540" fill="#0b0b0b"/>
  <path d="M0,110 C130,30 230,60 360,120 C520,195 650,185 960,70 L960,0 L0,0 Z" fill="url(#g)" opacity="0.9"/>
  <path d="M0,540 L0,420 C150,510 330,525 470,465 C650,390 760,400 960,510 L960,540 Z" fill="url(#g)" opacity="0.85"/>

  <g filter="url(#s)">
    <rect x="88" y="120" width="784" height="320" rx="18" fill="#111" stroke="#fff" stroke-width="4"/>
    <rect x="108" y="150" width="220" height="270" rx="12" fill="#0f0f0f" stroke="#fff" stroke-width="3" opacity="0.95"/>
    <rect x="348" y="150" width="504" height="270" rx="12" fill="#0f0f0f" stroke="#fff" stroke-width="3" opacity="0.95"/>

    <circle cx="132" cy="174" r="7" fill="#ff5f57"/>
    <circle cx="156" cy="174" r="7" fill="#febc2e"/>
    <circle cx="180" cy="174" r="7" fill="#28c840"/>

    <text x="128" y="235" font-family="ui-monospace, SFMono-Regular, Menlo, Monaco, Consolas, 'Liberation Mono', 'Courier New', monospace" font-size="16" fill="#e9e9e9" opacity="0.95">
      <tspan x="128" dy="0">&lt;!-- Playground --&gt;</tspan>
      <tspan x="128" dy="26">&lt;a-scene&gt; ... &lt;/a-scene&gt;</tspan>
      <tspan x="128" dy="26">Run • Reset • Open</tspan>
    </text>

    <g>
      <rect x="368" y="170" width="464" height="230" rx="10" fill="#0b0b0b" stroke="#222"/>
      <rect x="412" y="214" width="180" height="160" rx="10" fill="#151515" stroke="#222"/>
      <rect x="606" y="214" width="180" height="160" rx="10" fill="#151515" stroke="#222"/>
      <text x="386" y="204" font-family="system-ui, -apple-system, Segoe UI, Roboto, Arial, sans-serif" font-size="14" fill="#cfcfcf">Preview</text>
      <text x="428" y="304" font-family="system-ui, -apple-system, Segoe UI, Roboto, Arial, sans-serif" font-size="14" fill="#cfcfcf">AR</text>
      <text x="622" y="304" font-family="system-ui, -apple-system, Segoe UI, Roboto, Arial, sans-serif" font-size="14" fill="#cfcfcf">3D</text>
    </g>
  </g>

  <text x="88" y="496" font-family="system-ui, -apple-system, Segoe UI, Roboto, Arial, sans-serif" font-size="18" fill="#fff" opacity="0.9">No external CDNs — local-friendly landing media</text>
</svg>
